<svg xmlns="http://www.w3.org/2000/svg" width="320" height="320" viewBox="0 0 320 320">
<defs>
<radialGradient id="bgGlow" cx="50%" cy="36%" r="80%"><stop offset="0%" stop-color="#FFFFFF"/><stop offset="100%" stop-color="#F1F5F9"/></radialGradient>
<linearGradient id="acc" x1="0" y1="0" x2="1" y2="1"><stop offset="0%" stop-color="#fb923c"/><stop offset="100%" stop-color="#ea580c"/></linearGradient>
</defs>
<rect width="320" height="320" fill="url(#bgGlow)"/>
<rect x="64" y="52" width="192" height="118" rx="8" fill="#1E293B" opacity=".05"/>
<rect x="64" y="52" width="192" height="118" rx="8" stroke="#1E293B" stroke-opacity=".18" stroke-width="3" fill="none"/>
<path d="M160 52 V170 M64 111 H256" stroke="#1E293B" stroke-opacity=".14" stroke-width="3"/>
<rect x="84" y="126" width="14" height="40" fill="#475569" opacity=".12"/>
<rect x="106" y="108" width="18" height="58" fill="#475569" opacity=".15"/>
<rect x="178" y="120" width="16" height="46" fill="#475569" opacity=".12"/>
<rect x="202" y="100" width="20" height="66" fill="#475569" opacity=".15"/>
<circle cx="232" cy="80" r="10" fill="url(#acc)" opacity=".85"/>
<path d="M56 232 H264" stroke="#1E293B" stroke-opacity=".22" stroke-width="7" stroke-linecap="round"/>
<rect x="136" y="190" width="62" height="38" rx="6" fill="#334155" stroke="#1E293B" stroke-opacity=".3" stroke-width="3"/>
<path d="M167 228 v8 M150 240 h34" stroke="#1E293B" stroke-opacity=".3" stroke-width="4" stroke-linecap="round"/>
</svg>
